<svg xmlns="http://www.w3.org/2000/svg" fill="none" viewBox="0 0 54 47"><defs/><path fill="#F7F8F9" d="M53.057 11.373c-.233 5.184-3.844 12.268-10.825 21.271-7.223 9.392-13.323 14.092-18.317 14.092-3.101 0-5.72-2.86-7.854-8.58-1.434-5.253-2.86-10.497-4.285-15.741-1.59-5.729-3.292-8.589-5.115-8.589-.397 0-1.788.838-4.164 2.506L0 13.109a781.125 781.125 0 007.75-6.92c3.49-3.024 6.117-4.614 7.862-4.778 4.13-.397 6.679 2.428 7.63 8.484 1.027 6.54 1.744 10.601 2.142 12.191 1.192 5.426 2.506 8.13 3.94 8.13 1.106 0 2.773-1.754 5.002-5.27 2.22-3.525 3.413-6.195 3.577-8.035.311-3.033-.881-4.553-3.577-4.553-1.27 0-2.583.285-3.93.864C33.003 4.668 37.988.504 45.35.746c5.451.155 8.017 3.698 7.706 10.627z"/></svg>