<svg width="112" height="32" viewBox="0 0 112 32" fill="none" xmlns="http://www.w3.org/2000/svg">
<path d="M20.2178 23.6536H8.15129L5.62674 30.8323H0L11.767 0H16.6235L28.4118 30.8323H22.7637L20.2178 23.6536ZM9.6703 19.3337H18.6988L14.1845 6.54339L9.6703 19.3337Z" fill="#F7F8F9"/>
<path d="M40.9704 27.1477C42.2683 27.1477 43.3452 26.7736 44.201 26.0253C45.0567 25.2771 45.5132 24.3524 45.5702 23.2513H50.4695C50.4125 24.6771 49.9632 26.0112 49.1217 27.2535C48.2802 28.4818 47.1391 29.4559 45.6986 30.1758C44.258 30.8958 42.7034 31.2558 41.0346 31.2558C37.7969 31.2558 35.2295 30.2182 33.3326 28.1429C31.4356 26.0677 30.4871 23.2019 30.4871 19.5455V19.0161C30.4871 15.5291 31.4285 12.7409 33.3112 10.6515C35.1939 8.54806 37.7612 7.49631 41.0132 7.49631C43.7659 7.49631 46.0052 8.29394 47.731 9.88921C49.4711 11.4703 50.384 13.5527 50.4695 16.1361H45.5702C45.5132 14.8232 45.0567 13.7432 44.201 12.8962C43.3594 12.0492 42.2826 11.6256 40.9704 11.6256C39.2874 11.6256 37.9894 12.2327 37.0766 13.4468C36.1638 14.6468 35.7002 16.475 35.686 18.9314V19.7572C35.686 22.2419 36.1353 24.0983 37.0338 25.3265C37.9466 26.5406 39.2588 27.1477 40.9704 27.1477Z" fill="#F7F8F9"/>
<path d="M59.2841 7.91983L59.4338 10.3127C61.0598 8.43512 63.2848 7.49631 66.1089 7.49631C69.204 7.49631 71.322 8.66805 72.4631 11.0115C74.1461 8.66805 76.5137 7.49631 79.566 7.49631C82.1191 7.49631 84.0161 8.19512 85.2569 9.59274C86.5121 10.9904 87.1539 13.0515 87.1824 15.7761V30.8323H81.9836V15.9244C81.9836 14.4703 81.6627 13.4044 81.0208 12.7268C80.379 12.0492 79.3164 11.7103 77.8331 11.7103C76.6492 11.7103 75.6794 12.028 74.9234 12.6633C74.1817 13.2844 73.6611 14.1032 73.3616 15.1197L73.383 30.8323H68.1842V15.755C68.1128 13.0586 66.7222 11.7103 64.0122 11.7103C61.9298 11.7103 60.4536 12.5503 59.5836 14.2303V30.8323H54.3847V7.91983H59.2841Z" fill="#F7F8F9"/>
<path d="M102.715 31.2558C99.4201 31.2558 96.7458 30.2323 94.6919 28.1853C92.6523 26.1242 91.6325 23.3854 91.6325 19.969V19.3337C91.6325 17.0467 92.0746 15.0067 92.9589 13.2138C93.8575 11.4068 95.1127 10.0021 96.7244 8.99981C98.3361 7.99748 100.133 7.49631 102.116 7.49631C105.268 7.49631 107.7 8.49159 109.411 10.4821C111.137 12.4727 112 15.2891 112 18.9314V21.0066H96.8741C97.031 22.8983 97.6657 24.3948 98.7782 25.4959C99.905 26.5971 101.317 27.1477 103.014 27.1477C105.396 27.1477 107.336 26.1947 108.834 24.2889L111.636 26.9359C110.709 28.3053 109.468 29.3712 107.914 30.1335C106.373 30.8817 104.64 31.2558 102.715 31.2558ZM102.094 11.6256C100.668 11.6256 99.5128 12.1197 98.6285 13.108C97.7584 14.0962 97.2022 15.4726 96.9597 17.2373H106.865V16.8561C106.751 15.1338 106.288 13.835 105.475 12.9597C104.662 12.0703 103.535 11.6256 102.094 11.6256Z" fill="#F7F8F9"/>
</svg>
