<svg xmlns="http://www.w3.org/2000/svg" fill="none" viewBox="0 0 85 28"><defs/><path fill="#F7F8F9" d="M4.606.005C2.416.07.991.804.44 2.013c0 0-3.307 4.336 8.208 14.649v9.743h7.688V22.62a39.354 39.354 0 01-2.573-1.797 82.045 82.045 0 01-5.1-4.151v-4.095c1.74 1.944 4.05 4.153 7.092 6.65l.597.476v-3.94c0-.912.223-2.406 1.432-2.406 1.209 0 1.411.912 1.411 1.983v6.438a35.459 35.459 0 007.663 3.909V13.274c0-2.471-1.783-4.94-5.396-4.94a5.871 5.871 0 00-5.11 2.89V4.049c5.565 2.762 11.146 6.149 13.271 7.709-1.355 1.93-1.235 3.71-1.235 5.772 0 2.472-.186 4.534 2.231 6.94 2.417 2.405 6.693 2.261 6.693 2.261s4.288.144 6.692-2.262c2.417-2.405 2.22-4.467 2.22-6.939.003-2.445.203-4.521-2.215-6.914-2.417-2.405-6.692-2.256-6.692-2.256s-4.28-.15-6.698 2.256a7.907 7.907 0 00-.7.796c-5.074-3.913-9.633-6.146-13.567-8.076V.6l-2.988 1.399C9.75.538 6.797-.062 4.606.005zM75.21.583l-7.688 3.61v22.212h7.688V.583zm-68.684.594c1.685-.119 3.77.369 6.002 1.203l-3.88 1.812v8.37C2.18 5.358 3.482 2.511 3.973 2.102c.673-.566 1.542-.854 2.553-.925zM81.16 3.413c-2.112 0-3.84 1.135-3.84 3.237a3.832 3.832 0 003.84 3.82C83.273 10.47 85 8.766 85 6.65c0-2.115-1.714-3.237-3.84-3.237zM56.71 8.359s-4.294-.15-6.698 2.256c-2.417 2.406-2.23 4.484-2.23 6.955 0 2.472-.187 4.534 2.23 6.94 2.417 2.405 6.698 2.261 6.698 2.261s4.288.144 6.692-2.261c2.417-2.406 2.231-4.468 2.231-6.94-.013-2.485.173-4.562-2.23-6.955C60.984 8.21 56.71 8.36 56.71 8.36zm20.601 3.434v14.612H85V11.793h-7.689zm-39.994 1.549c.451 0 1.416.277 1.416 1.44v5.344c0 .476-.234 1.652-1.416 1.652s-1.422-1.176-1.422-1.652v-5.344c0-1.15.97-1.44 1.422-1.44zm19.377 0c.452 0 1.422.277 1.422 1.44v5.344c0 .476-.24 1.652-1.422 1.652s-1.421-1.176-1.421-1.652v-5.344c0-1.15.97-1.44 1.421-1.44zm-37.51 10.946v2.117l5.085.103a35.416 35.416 0 01-5.084-2.22zm5.085 2.22c4.848 1.652 9.285 1.875 12.58.95-2.645.026-6.084-.341-10.002-1.755v.702l-2.578.103z"/></svg>